<?xml version="1.0" encoding="iso-8859-1"?>
<!DOCTYPE svg PUBLIC "-//W3C//DTD SVG 1.0//EN" "http://www.w3.org/TR/2001/REC-SVG-20010904/DTD/svg10.dtd">
<!-- Creator: CorelDRAW -->
<svg xmlns="http://www.w3.org/2000/svg" xmlns:odm="http://product.corel.com/CGS/11/cddns/" xml:space="preserve" width="600px" height="342px" style="shape-rendering:geometricPrecision; text-rendering:geometricPrecision; image-rendering:optimizeQuality; fill-rule:evenodd"
     viewBox="0 0 599 342">
 <g id="Layer 1">
  <rect fill="#000000" x="0" y="114" width="600" height="114"/>
  <rect fill="#FFD400" x="240" y="200" width="107" height="7"/>
  <path fill="#FFD400" d="M345 195l21 -20 -23 10 17 -24 -23 8 10 -24 -22 12 6 -24 -20 17 1 -24 -11 21 -7 -24 -8 24 -11 -21 1 24 -19 -17 5 24 -22 -12 11 24 -23 -8 17 24 -24 -9 21 19 103 0z"/>
  <rect fill="#DA251D" x="0" y="0" width="600" height="114"/>
  <rect fill="#009a3F" x="0" y="228" width="600" height="114"/>
 </g>
</svg>
